<svg viewBox="0 0 82 88" version="1.1" xmlns="http://www.w3.org/2000/svg" xmlns:xlink="http://www.w3.org/1999/xlink">
    <title>Shape</title>
    <defs>
        <linearGradient x1="100%" y1="49.9999006%" x2="0%" y2="49.9999006%" id="linearGradient-1">
            <stop stop-color="#FA6E32" offset="0%"></stop>
            <stop stop-color="#FA4D30" offset="100%"></stop>
        </linearGradient>
    </defs>
    <g id="Sign-up" stroke="none" stroke-width="1" fill="none" fill-rule="evenodd">
        <g transform="translate(-1025.000000, -130.000000)" fill="url(#linearGradient-1)" id="Placeholder-illustration">
            <g transform="translate(691.000000, 0.000000)">
                <path d="M374.665753,130 L374.572895,130 C370.795406,130.008383 367.017916,130.998093 363.632817,132.970789 L363.042775,133.316343 L343.706958,144.64596 C338.03333,148.497416 334.452006,154.814763 334.041539,161.709257 C334.014933,162.152007 334,162.596503 334,163.040999 L334,163.195278 C334,165.059134 336.000873,166.223208 337.597916,165.287059 L385.605832,137.15438 C387.201303,136.221724 387.196354,133.900097 385.600883,132.969101 C382.21724,130.998093 378.443243,130.008383 374.665753,130 Z M398.97885,140.764289 C398.305848,140.371781 397.554833,140.175499 396.803526,140.175499 C396.049018,140.175499 395.293054,140.373441 394.618305,140.771013 L336.167057,175.018236 C334.824254,175.804764 334,177.252651 334,178.82105 L334,184.7727 C334,185.217196 334.014933,185.659946 334.041539,186.102987 C334.043198,186.126274 334.043198,186.148106 334.044857,186.171684 C334.244284,189.343704 337.779062,191.136826 340.504519,189.5399 L364.729648,175.345422 L376.334288,168.544951 L384.780006,163.596401 L404.867042,151.825519 C407.700523,150.166504 407.770094,146.060081 404.99978,144.292022 C404.755554,144.135997 404.504634,143.985038 404.250511,143.837425 L398.97885,140.764289 Z M415.236873,184.62337 C415.236873,183.271252 414.13684,182.303374 412.940164,182.303374 C412.556506,182.303374 412.16266,182.402345 411.791809,182.620372 L363.627868,210.842241 C362.10226,211.734435 362.105462,213.9607 363.632817,214.849693 C367.001324,216.815722 370.762221,217.806888 374.526321,217.823771 L374.710581,217.823771 C378.473226,217.806888 382.234123,216.815722 385.60263,214.849693 L404.250511,203.984716 C411.045743,200.019181 415.236873,192.695328 415.236873,184.7727 L415.236873,184.62337 Z M415.235418,162.844804 C415.210384,160.105636 412.925318,158.193167 410.465889,158.193167 C409.658111,158.193167 408.830539,158.399551 408.059439,158.850742 L380.512319,174.991455 L377.971385,176.480969 L345.056369,195.768377 C341.975286,197.573433 341.840656,202.13454 344.916791,203.946001 C344.93839,203.957935 344.963308,203.971325 344.983247,203.984716 L350.196515,207.020796 C351.677238,207.883008 353.501972,207.881553 354.981035,207.014101 L412.85895,173.099072 C414.333035,172.23686 415.236873,170.648375 415.236873,168.930646 L415.236873,163.040999 C415.236873,162.975504 415.236873,162.910299 415.235418,162.844804 Z" id="Shape"></path>
            </g>
        </g>
    </g>
</svg>