<svg width="13px" height="10px" viewBox="0 0 13 10" version="1.1" xmlns="http://www.w3.org/2000/svg" xmlns:xlink="http://www.w3.org/1999/xlink">
    <title>1095A389-4FCE-4B41-89EA-A172DA3D0A5C</title>
    <g id="Page-2" stroke="none" stroke-width="1" fill="none" fill-rule="evenodd">
        <g id="My-videos" transform="translate(-28.000000, -239.000000)" fill="#596B93" fill-rule="nonzero">
            <g id="Navigation" transform="translate(16.000000, 168.000000)">
                <g id="Videos" transform="translate(12.022354, 71.000000)">
                    <path d="M4,2.5 L4,7.5 C4,7.89271777 4.43197547,8.13213915 4.76499947,7.92399915 L8.76499947,5.42399915 C9.07833351,5.22816538 9.07833351,4.77183462 8.76499947,4.57600085 L4.76499947,2.07600085 C4.43197547,1.86786085 4,2.10728223 4,2.5 Z M5,3.401 L7.557,5 L5,6.598 L5,3.401 Z" id="Path"></path>
                    <path d="M9.5,-1 L2.5,-1 C1.67157288,-1 1,-0.328427125 1,0.5 L1,9.5 C1,10.3284271 1.67157288,11 2.5,11 L9.5,11 C10.3284271,11 11,10.3284271 11,9.5 L11,0.5 C11,-0.328427125 10.3284271,-1 9.5,-1 Z M2.5,0 L9.5,0 C9.77614237,0 10,0.223857625 10,0.5 L10,9.5 C10,9.77614237 9.77614237,10 9.5,10 L2.5,10 C2.22385763,10 2,9.77614237 2,9.5 L2,0.5 C2,0.223857625 2.22385763,0 2.5,0 Z" id="Rectangle" transform="translate(6.000000, 5.000000) rotate(90.000000) translate(-6.000000, -5.000000) "></path>
                </g>
            </g>
        </g>
    </g>
</svg>